<?xml version="1.0" encoding="UTF-8"?>
<svg id="Layer_1" data-name="Layer 1" xmlns="http://www.w3.org/2000/svg" xmlns:xlink="http://www.w3.org/1999/xlink" viewBox="0 0 267.17 252.02">
  <defs>
    <style>
      .cls-1 {
        fill: url(#linear-gradient);
      }

      .cls-1, .cls-2, .cls-3, .cls-4, .cls-5, .cls-6, .cls-7 {
        stroke-width: 0px;
      }

      .cls-2 {
        fill: #ffc6d0;
      }

      .cls-4 {
        fill: #fff;
      }

      .cls-5 {
        fill: url(#linear-gradient-2);
      }

      .cls-6 {
        fill: url(#linear-gradient-3);
      }

      .cls-7 {
        fill: url(#linear-gradient-4);
      }
    </style>
    <linearGradient id="linear-gradient" x1="6.34" y1="152.58" x2="259.12" y2="152.58" gradientUnits="userSpaceOnUse">
      <stop offset="0" stop-color="#22d3ee"/>
      <stop offset=".05" stop-color="#27d3d5"/>
      <stop offset=".12" stop-color="#2cd3bb"/>
      <stop offset=".19" stop-color="#30d3a8"/>
      <stop offset=".26" stop-color="#33d39c"/>
      <stop offset=".34" stop-color="#34d399"/>
      <stop offset=".68" stop-color="#3b82f6"/>
      <stop offset="1" stop-color="#f472b6"/>
    </linearGradient>
    <linearGradient id="linear-gradient-2" x1="6.34" y1="35.5" x2="259.12" y2="35.5" xlink:href="#linear-gradient"/>
    <linearGradient id="linear-gradient-3" x1="6.34" y1="118.99" x2="259.12" y2="118.99" xlink:href="#linear-gradient"/>
    <linearGradient id="linear-gradient-4" x1="6.34" y1="35.5" x2="259.12" y2="35.5" xlink:href="#linear-gradient"/>
  </defs>
  <path class="cls-3" d="M235.03,13.39c1.67.17,3.01.42,4.36.43,7.63.04,15.27,0,22.9.03,4.06.01,4.88.8,4.88,4.73,0,76.23,0,152.47,0,228.7,0,4.4-.38,4.72-5.72,4.72-42.64,0-85.29,0-127.93,0-42.53,0-85.07.01-127.6.02-5.66,0-5.88-.21-5.88-5.93C.01,170.62,0,95.15,0,19.68c0-5.85.19-6.02,6.08-6.02,65.66,0,131.31-.02,196.97.09,3.97,0,7.16-.93,10.09-3.55,2.75-2.47,5.75-4.66,8.63-6.99,4.71-3.8,7.7-4.17,11.46-1.4,3.21,2.37,3.88,5.89,1.81,11.58ZM219.06,247.77c.29-.43.58-.86.87-1.29-1.14-.75-2.33-1.45-3.42-2.26-3.67-2.73-7.37-5.42-10.95-8.27-10.25-8.16-20.95-15.44-33.7-19.33-7.36-2.25-13.83-6.4-17.61-13.25-6.89-12.46-11.54-25.63-9.78-40.24.37-3.1-.37-4.06-3.67-3.43-2.22.42-5.31,1.33-6.6-1.84-2.91-7.14-5.96-14.24-8.33-21.57-2.53-7.85-4.3-15.95-6.48-23.92-.75-2.74-1.98-3.06-4.19-1.25-3.21,2.62-6.45,5.18-9.57,7.91-11.12,9.72-22.73,18.65-37.09,23.14-1.2.38-2.61.07-3.92.07.05-1.13-.3-2.51.22-3.35,5.83-9.35,11.96-18.45,21.05-25.13,4.3-3.15,8.26-6.76,12.42-10.1,1.47-1.18,1.73-2.37-.03-3.28-3.75-1.94-3.64-5.08-2.84-8.44,2.34-9.84,4.79-19.66,7.09-29.5,1.1-4.7.48-5.38-4.27-5.38-29.34,0-58.68,0-88.03,0-5.85,0-6.09.24-6.09,6.09,0,51.92,0,103.84,0,155.77,0,1.64.03,3.27-.01,4.91-.06,2.25,1.06,3.28,3.23,2.99,3.23-.43,6.49-.77,9.64-1.56,18.07-4.58,31.01-15.61,39.66-31.92,4.64-8.75,6.38-18.2,6.87-28,.06-1.18,1.37-2.3,2.11-3.45.63,1.21,1.81,2.42,1.82,3.63.09,14.98-4.21,28.65-13.5,40.41-11.74,14.86-26.91,23.86-46.13,25.19-2.7.19-3.98,1.27-3.87,4.06.11,2.94.16,5.9-.02,8.83-.2,3.21,1.24,4.12,4.27,4.11,69.16-.06,138.31-.04,207.47-.06,1.13,0,2.27-.18,3.4-.28ZM262.92,217.79c0-8.62-.13-17.24.07-25.85.07-3.29-.9-5.55-3.68-7.38-6.46-4.26-11.19-9.78-13.15-17.58-3.04-12.12-6.41-24.16-9.7-36.22-3.52-12.9-7.09-25.79-10.7-38.66-1.36-4.85-3.15-9.44-7.05-12.98-9.28-8.41-18.5-16.91-27.67-25.44-1.83-1.7-3.27-1.98-5.34-.27-7.54,6.27-15.18,12.4-22.83,18.54-1.62,1.3-1.88,2.44-.96,4.46,3.94,8.59,7.79,17.24,11.4,25.97,4.24,10.28,9.55,19.76,18.05,27.21,2.45,2.15,4.71,4.56,6.73,7.12.72.91.46,2.58.65,3.91-1.13-.3-2.59-.26-3.34-.96-11.23-10.47-21.06-21.85-26.45-36.69-3.37-9.27-7.75-18.2-12.08-27.09-2.73-5.61-9.94-7.53-15.58-4.77-5.39,2.64-8.14,9.83-5.71,15.35,4.03,9.15,8.26,18.22,12.26,27.39,4.71,10.8,6.94,21.93,4.4,33.73-1.32,6.16-2.72,12.35-3.41,18.6-.94,8.52,1.55,16.55,4.46,24.5,3.9,10.67,10.21,18.51,21.44,22.46,8.56,3,17.07,6.45,24.37,12.29,9.18,7.35,18.63,14.37,28.06,21.41,1.29.97,3.11,1.69,4.7,1.72,9.05.16,18.11,0,27.16.12,2.99.04,4.01-1.06,3.96-4.04-.14-8.94-.05-17.89-.05-26.83ZM202.11,19.98l-1-1.55c-1.15-.08-2.3-.24-3.44-.24-62.8,0-125.6,0-188.39,0-4.77,0-5.13.37-5.14,5.27-.01,7.96,0,15.92,0,23.88,0,5.3.18,5.48,5.54,5.48,28.46,0,56.91,0,85.37,0,5.7,0,10.87-.52,16.42-3.44,14.02-7.36,28.78-13.31,43.26-19.77,4.67-2.08,9.59-2.66,14.23-.27,3.04,1.57,5.74,3.87,8.38,6.09,1.7,1.43,2.88,1.78,4.74.2,5.48-4.64,11.11-9.11,16.73-13.59,1.01-.8,2.2-1.37,3.31-2.05ZM262.67,180.93c.16-1.8.34-2.84.34-3.88.01-38.49.01-76.98,0-115.47,0-4.22-.25-4.49-4.42-4.5-17.23-.03-34.46-.03-51.68-.02-1.12,0-2.23.23-4.12.44,1.19,1.51,1.8,2.48,2.6,3.25,2.43,2.34,4.98,4.56,7.4,6.91,4.29,4.16,9.74,7.72,12.48,12.75,3.77,6.93,5.71,14.91,8.01,22.57,3.06,10.2,5.72,20.52,8.54,30.78,2.85,10.37,5.88,20.69,8.48,31.12,1.74,6.97,5.52,12.06,12.36,16.04ZM161.89,32.15c-1.41.44-3.77.93-5.94,1.88-13.53,5.96-27.01,12.02-40.51,18.04-4.18,1.86-7.3,4.57-8.34,9.32-2.11,9.66-4.41,19.28-6.51,28.95-.41,1.89-.25,3.9-.36,5.86,2.19-.12,4.39-.13,6.56-.41.91-.12,1.84-.7,2.6-1.28,4.05-3.11,8.09-6.24,12.05-9.47,4.68-3.82,9.83-7.1,12.69-12.86.93-1.87,3.19-3.26,5.12-4.41,2.2-1.32,5.04-1.69,7.02-3.22,9.56-7.4,18.94-15.02,28.29-22.67.59-.48.89-2.41.47-2.86-3.3-3.55-6.96-6.63-13.14-6.85ZM229.1,52.84v-.04c9.92,0,19.84-.06,29.76.04,2.84.03,4.17-.76,4.12-3.88-.15-8.94-.13-17.88-.02-26.82.04-2.99-1.1-4.02-4.05-3.98-8.61.13-17.23-.08-25.83.14-2.11.06-4.57.79-6.21,2.07-10.57,8.22-20.95,16.69-31.41,25.04-3.45,2.76-3.16,5.24,1.02,6.93,1.07.43,2.34.47,3.52.48,9.7.04,19.41.02,29.11.02ZM134.4,95.4c-3.96,3.12-7.41,5.57-10.49,8.41-1.04.95-1.85,3.07-1.56,4.39,1.36,6.25,2.85,12.5,4.84,18.58,2.92,8.96,6.25,17.79,9.55,26.62.34.91,1.59,1.89,2.57,2.08,2.31.44,7.22-2.75,7.75-5.13,1.49-6.7,3.04-13.54.94-20.31-2.21-7.12-4.9-14.1-7.59-21.06-1.67-4.33-3.74-8.5-6-13.57ZM152.83,65.07c2.9,4.8,5.47,5.31,9.37,2.12,19.48-15.91,38.96-31.81,58.44-47.73,3.29-2.69,6.69-5.26,9.74-8.19.97-.93,1.5-2.96,1.25-4.3-.18-.99-1.96-2.32-3.04-2.34-1.32-.02-2.83.98-3.96,1.9-19.48,15.74-38.93,31.51-58.36,47.32-4.54,3.69-8.98,7.5-13.43,11.22ZM73.19,133.53c.32.36.64.71.97,1.07,4.3-.8,8.01-3.09,11.35-5.73,15.1-11.93,30.03-24.07,45.08-36.06,2.6-2.07,1.39-4.22.67-6.46-.7-2.17-1.67-2.8-3.71-1.05-5.12,4.38-10.42,8.57-15.61,12.88-10.05,8.33-20.2,16.55-30.03,25.13-3.34,2.92-5.84,6.79-8.72,10.23Z"/>
  <path class="cls-1" d="M219.06,247.77c-1.13.1-2.27.28-3.4.28-69.16.01-138.31,0-207.47.06-3.03,0-4.47-.9-4.27-4.11.18-2.93.13-5.89.02-8.83-.11-2.79,1.17-3.87,3.87-4.06,19.22-1.33,34.39-10.34,46.13-25.19,9.29-11.76,13.59-25.43,13.5-40.41,0-1.21-1.18-2.42-1.82-3.63-.73,1.15-2.05,2.26-2.11,3.45-.49,9.79-2.23,19.24-6.87,28-8.65,16.31-21.59,27.35-39.66,31.92-3.14.8-6.41,1.13-9.64,1.56-2.17.29-3.29-.74-3.23-2.99.04-1.64.01-3.27.01-4.91,0-51.92,0-103.84,0-155.77,0-5.84.24-6.09,6.09-6.09,29.34,0,58.68,0,88.03,0,4.75,0,5.37.68,4.27,5.38-2.31,9.85-4.76,19.66-7.09,29.5-.8,3.35-.91,6.5,2.84,8.44,1.76.91,1.5,2.09.03,3.28-4.16,3.35-8.12,6.95-12.42,10.1-9.09,6.67-15.22,15.77-21.05,25.13-.52.84-.17,2.22-.22,3.35,1.31,0,2.73.3,3.92-.07,14.36-4.49,25.97-13.42,37.09-23.14,3.11-2.72,6.36-5.29,9.57-7.91,2.21-1.8,3.44-1.48,4.19,1.25,2.18,7.97,3.95,16.07,6.48,23.92,2.36,7.32,5.42,14.43,8.33,21.57,1.29,3.17,4.38,2.26,6.6,1.84,3.3-.62,4.04.33,3.67,3.43-1.75,14.61,2.9,27.79,9.78,40.24,3.79,6.85,10.25,11,17.61,13.25,12.75,3.89,23.45,11.17,33.7,19.33,3.58,2.85,7.28,5.54,10.95,8.27,1.1.81,2.28,1.51,3.42,2.26-.29.43-.58.86-.87,1.29Z"/>
  <path class="cls-2" d="M262.92,217.79c0,8.95-.09,17.89.05,26.83.05,2.98-.97,4.08-3.96,4.04-9.05-.12-18.11.04-27.16-.12-1.59-.03-3.41-.75-4.7-1.72-9.43-7.04-18.87-14.06-28.06-21.41-7.3-5.84-15.81-9.29-24.37-12.29-11.23-3.94-17.54-11.78-21.44-22.46-2.91-7.95-5.4-15.98-4.46-24.5.69-6.25,2.08-12.44,3.41-18.6,2.53-11.79.31-22.93-4.4-33.73-4-9.17-8.23-18.23-12.26-27.39-2.43-5.52.32-12.72,5.71-15.35,5.64-2.76,12.85-.84,15.58,4.77,4.33,8.89,8.71,17.82,12.08,27.09,5.39,14.83,15.22,26.22,26.45,36.69.76.7,2.21.66,3.34.96-.19-1.32.07-3-.65-3.91-2.02-2.55-4.28-4.97-6.73-7.12-8.49-7.45-13.81-16.93-18.05-27.21-3.6-8.74-7.45-17.38-11.4-25.97-.92-2.02-.66-3.16.96-4.46,7.65-6.13,15.29-12.27,22.83-18.54,2.06-1.71,3.5-1.44,5.34.27,9.18,8.53,18.39,17.03,27.67,25.44,3.91,3.54,5.7,8.13,7.05,12.98,3.6,12.88,7.17,25.76,10.7,38.66,3.29,12.06,6.66,24.1,9.7,36.22,1.96,7.8,6.69,13.33,13.15,17.58,2.78,1.83,3.75,4.09,3.68,7.38-.19,8.61-.07,17.23-.06,25.85Z"/>
  <path class="cls-5" d="M202.11,19.98c-1.11.68-2.3,1.25-3.31,2.05-5.61,4.49-11.25,8.95-16.73,13.59-1.87,1.58-3.05,1.23-4.74-.2-2.64-2.22-5.34-4.52-8.38-6.09-4.63-2.39-9.55-1.81-14.23.27-14.49,6.46-29.24,12.42-43.26,19.77-5.55,2.91-10.72,3.44-16.42,3.44-28.46,0-56.91,0-85.37,0-5.36,0-5.54-.18-5.54-5.48,0-7.96-.01-15.92,0-23.88,0-4.9.37-5.27,5.14-5.27,62.8,0,125.6,0,188.39,0,1.15,0,2.3.16,3.44.24l1,1.55ZM34.85,38.05c3.71,0,7.43.2,11.11-.11,1.31-.11,2.5-1.48,3.75-2.27-1.2-.66-2.39-1.85-3.61-1.88-6.75-.19-13.52-.09-20.27-.08-1.31,0-2.66-.14-3.9.16-.8.19-1.93,1.03-1.99,1.67-.06.66.86,1.68,1.6,2.07.8.43,1.89.41,2.86.42,3.49.04,6.98.02,10.46.02Z"/>
  <path class="cls-6" d="M262.67,180.93c-6.84-3.98-10.62-9.07-12.36-16.04-2.6-10.43-5.63-20.76-8.48-31.12-2.82-10.27-5.48-20.59-8.54-30.78-2.3-7.66-4.24-15.64-8.01-22.57-2.74-5.03-8.19-8.59-12.48-12.75-2.42-2.35-4.97-4.57-7.4-6.91-.8-.77-1.41-1.75-2.6-3.25,1.89-.21,3.01-.43,4.12-.44,17.23-.02,34.46-.01,51.68.02,4.17,0,4.42.28,4.42,4.5.01,38.49,0,76.98,0,115.47,0,1.04-.18,2.08-.34,3.88Z"/>
  <path class="cls-2" d="M161.89,32.15c6.17.22,9.83,3.3,13.14,6.85.42.45.12,2.38-.47,2.86-9.35,7.66-18.74,15.28-28.29,22.67-1.98,1.53-4.82,1.91-7.02,3.22-1.93,1.15-4.19,2.54-5.12,4.41-2.86,5.77-8,9.05-12.69,12.86-3.96,3.23-8,6.35-12.05,9.47-.76.58-1.69,1.16-2.6,1.28-2.17.28-4.37.29-6.56.41.11-1.96-.05-3.97.36-5.86,2.1-9.66,4.4-19.29,6.51-28.95,1.04-4.75,4.16-7.45,8.34-9.32,13.5-6.02,26.98-12.09,40.51-18.04,2.16-.95,4.53-1.45,5.94-1.88Z"/>
  <path class="cls-7" d="M229.1,52.84c-9.7,0-19.41.02-29.11-.02-1.18,0-2.45-.05-3.52-.48-4.18-1.69-4.47-4.17-1.02-6.93,10.46-8.36,20.84-16.83,31.41-25.04,1.64-1.27,4.1-2.01,6.21-2.07,8.61-.23,17.22-.02,25.83-.14,2.95-.04,4.09.99,4.05,3.98-.12,8.94-.14,17.88.02,26.82.05,3.13-1.28,3.91-4.12,3.88-9.92-.1-19.84-.04-29.76-.04v.04Z"/>
  <path class="cls-2" d="M134.4,95.4c2.26,5.07,4.32,9.24,6,13.57,2.69,6.96,5.38,13.94,7.59,21.06,2.1,6.77.55,13.61-.94,20.31-.53,2.38-5.43,5.57-7.75,5.13-.97-.18-2.23-1.17-2.57-2.08-3.3-8.83-6.63-17.66-9.55-26.62-1.98-6.08-3.47-12.33-4.84-18.58-.29-1.32.52-3.43,1.56-4.39,3.08-2.84,6.53-5.29,10.49-8.41Z"/>
  <path class="cls-4" d="M152.83,65.07c4.45-3.72,8.9-7.53,13.43-11.22,19.43-15.8,38.88-31.58,58.36-47.32,1.14-.92,2.64-1.91,3.96-1.9,1.08.01,2.86,1.35,3.04,2.34.25,1.34-.28,3.37-1.25,4.3-3.05,2.93-6.45,5.51-9.74,8.19-19.48,15.91-38.96,31.81-58.44,47.73-3.9,3.18-6.47,2.68-9.37-2.12Z"/>
  <path class="cls-4" d="M73.19,133.53c2.88-3.44,5.38-7.32,8.72-10.23,9.83-8.58,19.98-16.8,30.03-25.13,5.19-4.31,10.48-8.49,15.61-12.88,2.04-1.74,3.01-1.12,3.71,1.05.73,2.24,1.93,4.39-.67,6.46-15.05,11.99-29.98,24.13-45.08,36.06-3.34,2.64-7.05,4.93-11.35,5.73-.32-.36-.64-.71-.97-1.07Z"/>
  <path class="cls-3" d="M34.85,38.05c-3.49,0-6.98.03-10.46-.02-.97-.01-2.06,0-2.86-.42-.74-.39-1.66-1.41-1.6-2.07.06-.64,1.19-1.48,1.99-1.67,1.24-.3,2.6-.16,3.9-.16,6.76,0,13.52-.1,20.27.08,1.22.03,2.41,1.23,3.61,1.88-1.25.79-2.45,2.16-3.75,2.27-3.68.31-7.4.11-11.11.11Z"/>
</svg>